<svg width="11" height="14" viewBox="0 0 11 14" fill="none" xmlns="http://www.w3.org/2000/svg">
    <path d="M4.91032 0.0414129C3.74291 0.153008 2.64182 0.646632 1.77106 1.44872C0.900297 2.25082 0.306131 3.3188 0.0771788 4.49358C-0.137779 5.74345 0.0998343 7.03049 0.745637 8.11432L1.10812 8.73153C1.88933 10.0456 2.79879 11.2753 3.82286 12.402L4.9989 13.7105C5.10732 13.8905 5.29949 14 5.50635 14C5.71321 14 5.90525 13.8905 6.01379 13.7105L7.18983 12.4103C8.21215 11.2764 9.1216 10.0415 9.90444 8.72359L10.1944 8.22982H10.1945C10.7229 7.39052 11.0027 6.41318 11 5.41531C10.9637 3.84967 10.2812 2.37278 9.1212 1.34912C7.96118 0.325506 6.4317 -0.149534 4.91016 0.0414129H4.91032ZM5.53051 7.44794C5.01337 7.42838 4.52463 7.20133 4.1704 6.81599C3.81613 6.43064 3.62491 5.91814 3.63827 5.38967C3.65149 4.86119 3.86833 4.35928 4.24148 3.99308C4.61474 3.62688 5.11424 3.42588 5.6317 3.4336C6.14912 3.44132 6.64269 3.65706 7.00531 4.03427C7.36793 4.41148 7.57034 4.91946 7.56858 5.44821C7.55793 5.98952 7.33731 6.50435 6.95501 6.87936C6.57285 7.25452 6.0604 7.45898 5.53055 7.44794H5.53051Z" fill="#1965BE"/>
</svg>
