<svg width="20" height="20" viewBox="0 0 20 20" fill="none" xmlns="http://www.w3.org/2000/svg">
    <path d="M10 0C4.47704 0 0 4.47684 0 10C0 15.5232 4.47684 20 10 20C15.5232 20 20 15.5232 20 10C20 4.47684 15.5232 0 10 0ZM14.3124 8.25357L8.77311 13.7929C8.68562 13.8803 8.58557 13.9447 8.47855 13.9894C8.15529 14.1197 7.77324 14.0555 7.51075 13.7929L4.72677 11.0089C4.55956 10.8415 4.46568 10.6145 4.46568 10.3777C4.46568 10.1409 4.55955 9.91394 4.72677 9.74653C4.89438 9.57912 5.12138 9.48525 5.35794 9.48525C5.5947 9.48525 5.8217 9.57912 5.98932 9.74653L8.14294 11.9L13.0519 6.99102C13.2193 6.82381 13.4463 6.72994 13.683 6.72994C13.9198 6.72994 14.1468 6.82381 14.3142 6.99102C14.4816 7.15863 14.5755 7.38563 14.5755 7.6224C14.5755 7.85896 14.4816 8.08616 14.3142 8.25357H14.3124Z" fill="#1965BE"/>
</svg>
