<svg width="172" height="42" viewBox="0 0 172 42" fill="none" xmlns="http://www.w3.org/2000/svg">
    <path d="M161.911 36.8351C159.988 36.8351 158.119 36.5508 156.304 35.9823C154.49 35.4137 152.953 34.5911 151.695 33.5145L154.526 29.0144C155.058 29.583 155.736 30.0729 156.558 30.4842C157.381 30.8955 158.258 31.216 159.189 31.4459C160.133 31.6636 161.046 31.7725 161.929 31.7725C163.175 31.7725 164.185 31.5669 164.96 31.1556C165.746 30.7322 166.139 30.1213 166.139 29.3229C166.139 28.6696 165.855 28.1192 165.286 27.6716C164.73 27.224 163.683 26.7946 162.147 26.3833L159.97 25.7664C157.357 25.0405 155.475 24.0486 154.326 22.7905C153.177 21.5324 152.602 20.0203 152.602 18.2541C152.602 17.117 152.844 16.0706 153.328 15.115C153.812 14.1472 154.49 13.3125 155.361 12.6109C156.232 11.8972 157.254 11.3467 158.427 10.9596C159.613 10.5604 160.901 10.3608 162.292 10.3608C164.216 10.3608 166 10.6451 167.645 11.2137C169.302 11.7701 170.633 12.5322 171.637 13.5L168.697 17.8549C168.238 17.371 167.669 16.9476 166.992 16.5847C166.314 16.2218 165.576 15.9376 164.778 15.7319C163.98 15.5263 163.175 15.4234 162.365 15.4234C161.566 15.4234 160.871 15.5263 160.278 15.7319C159.685 15.9376 159.22 16.2339 158.881 16.621C158.554 16.996 158.391 17.4436 158.391 17.9638C158.391 18.3872 158.512 18.7441 158.754 19.0344C159.008 19.3126 159.425 19.5787 160.006 19.8328C160.599 20.0868 161.397 20.365 162.401 20.6675L164.615 21.3207C167.216 22.0828 169.097 23.0385 170.258 24.1877C171.419 25.3369 172 26.8309 172 28.6696C172 30.2785 171.589 31.6999 170.766 32.9338C169.943 34.1556 168.776 35.1113 167.264 35.8008C165.764 36.4903 163.98 36.8351 161.911 36.8351Z" fill="#1965BE"/>
    <path d="M131.419 36.2909V10.8872H148.149V16.3853H137.444V21.6293H147.024V26.9097H137.444V36.2909H131.419Z" fill="#1965BE"/>
    <path d="M113.448 36.8352C111.501 36.8352 109.698 36.5025 108.041 35.8372C106.396 35.1597 104.962 34.2222 103.74 33.0246C102.519 31.827 101.569 30.4238 100.892 28.8149C100.226 27.206 99.8936 25.464 99.8936 23.589C99.8936 21.7018 100.226 19.9538 100.892 18.3449C101.569 16.736 102.519 15.3328 103.74 14.1352C104.962 12.9376 106.396 12.0061 108.041 11.3408C109.698 10.6754 111.501 10.3428 113.448 10.3428C115.408 10.3428 117.21 10.6815 118.856 11.3589C120.501 12.0364 121.934 12.9799 123.156 14.1896C124.378 15.3993 125.321 16.8086 125.987 18.4175C126.664 20.0143 127.003 21.7381 127.003 23.589C127.003 25.464 126.664 27.206 125.987 28.8149C125.321 30.4238 124.378 31.827 123.156 33.0246C121.934 34.2222 120.501 35.1597 118.856 35.8372C117.21 36.5025 115.408 36.8352 113.448 36.8352ZM113.448 31.1738C114.501 31.1738 115.462 30.9984 116.333 30.6476C117.216 30.2968 117.985 29.7887 118.638 29.1233C119.291 28.458 119.793 27.6596 120.144 26.7281C120.507 25.7846 120.688 24.7382 120.688 23.589C120.688 22.0406 120.374 20.6978 119.745 19.5607C119.128 18.4236 118.269 17.5465 117.168 16.9296C116.079 16.3005 114.839 15.986 113.448 15.986C112.408 15.986 111.446 16.1675 110.563 16.5304C109.68 16.8812 108.912 17.3893 108.259 18.0546C107.617 18.7199 107.115 19.5183 106.753 20.4498C106.39 21.3813 106.208 22.4277 106.208 23.589C106.208 25.1253 106.523 26.462 107.152 27.5991C107.781 28.7362 108.64 29.6193 109.728 30.2484C110.829 30.8653 112.069 31.1738 113.448 31.1738Z" fill="#1965BE"/>
    <path d="M83.1467 36.8352C81.1991 36.8352 79.3966 36.5025 77.7394 35.8372C76.0942 35.1597 74.6607 34.2222 73.4389 33.0246C72.2171 31.827 71.2675 30.4238 70.59 28.8149C69.9247 27.206 69.592 25.464 69.592 23.589C69.592 21.7018 69.9247 19.9538 70.59 18.3449C71.2675 16.736 72.2171 15.3328 73.4389 14.1352C74.6607 12.9376 76.0942 12.0061 77.7394 11.3408C79.3966 10.6754 81.1991 10.3428 83.1467 10.3428C85.1064 10.3428 86.9089 10.6815 88.5541 11.3589C90.1993 12.0364 91.6327 12.9799 92.8545 14.1896C94.0763 15.3993 95.0199 16.8086 95.6852 18.4175C96.3627 20.0143 96.7014 21.7381 96.7014 23.589C96.7014 25.464 96.3627 27.206 95.6852 28.8149C95.0199 30.4238 94.0763 31.827 92.8545 33.0246C91.6327 34.2222 90.1993 35.1597 88.5541 35.8372C86.9089 36.5025 85.1064 36.8352 83.1467 36.8352ZM83.1467 31.1738C84.1992 31.1738 85.1609 30.9984 86.0318 30.6476C86.9149 30.2968 87.6831 29.7887 88.3363 29.1233C88.9896 28.458 89.4916 27.6596 89.8424 26.7281C90.2053 25.7846 90.3868 24.7382 90.3868 23.589C90.3868 22.0406 90.0722 20.6978 89.4432 19.5607C88.8263 18.4236 87.9674 17.5465 86.8665 16.9296C85.7778 16.3005 84.5379 15.986 83.1467 15.986C82.1064 15.986 81.1447 16.1675 80.2616 16.5304C79.3785 16.8812 78.6103 17.3893 77.9571 18.0546C77.316 18.7199 76.8139 19.5183 76.451 20.4498C76.0881 21.3813 75.9067 22.4277 75.9067 23.589C75.9067 25.1253 76.2212 26.462 76.8502 27.5991C77.4793 28.7362 78.3382 29.6193 79.4269 30.2484C80.5277 30.8653 81.7677 31.1738 83.1467 31.1738Z" fill="#1965BE"/>
    <path d="M46.6105 36.2909V10.8872H56.9171C58.8042 10.8872 60.4494 11.1957 61.8527 11.8126C63.268 12.4175 64.3568 13.3006 65.1189 14.4619C65.8931 15.6232 66.2802 17.0143 66.2802 18.6353C66.2802 19.8813 66.0443 20.9821 65.5725 21.9378C65.1007 22.8814 64.4535 23.6677 63.6309 24.2967C62.8083 24.9258 61.8769 25.3975 60.8365 25.7121L67.6774 36.2909H60.5281L54.8667 26.946H52.6348V36.2909H46.6105ZM52.6348 22.1193H56.1913C57.4494 22.1193 58.4292 21.8713 59.1309 21.3753C59.8446 20.8793 60.2014 20.093 60.2014 19.0164C60.2014 17.9277 59.8627 17.1293 59.1853 16.6212C58.52 16.101 57.5643 15.8409 56.3183 15.8409H52.6348V22.1193Z" fill="#1965BE"/>
    <path fill-rule="evenodd" clip-rule="evenodd" d="M11.3409 11.3408H37.6519V41.2809H11.3409V11.3408ZM17.6919 17.6917V34.9299H31.301V17.6917H17.6919Z" fill="#1965BE"/>
    <path fill-rule="evenodd" clip-rule="evenodd" d="M15.8773 25.4037C21.1386 25.4037 25.4037 21.1386 25.4037 15.8773C25.4037 10.616 21.1386 6.35092 15.8773 6.35092C10.616 6.35092 6.35092 10.616 6.35092 15.8773C6.35092 21.1386 10.616 25.4037 15.8773 25.4037ZM15.8773 31.7546C24.6461 31.7546 31.7546 24.6461 31.7546 15.8773C31.7546 7.10851 24.6461 0 15.8773 0C7.10851 0 0 7.10851 0 15.8773C0 24.6461 7.10851 31.7546 15.8773 31.7546Z" fill="#1965BE"/>
</svg>
