<svg width="13" height="9" viewBox="0 0 13 9" fill="none" xmlns="http://www.w3.org/2000/svg">
    <path d="M0.581026 0.257653C0.816692 0.0908135 1.10087 0.000614561 1.39281 0H11.6071C11.8927 0.000200877 12.1712 0.0861825 12.4044 0.246089L6.88467 3.7622C6.77067 3.83482 6.6373 3.87369 6.5008 3.8739C6.36442 3.874 6.23083 3.83563 6.11664 3.76331L0.581026 0.257653ZM7.39462 4.51432C7.12952 4.68327 6.81933 4.77357 6.5021 4.77408C6.18488 4.77449 5.87439 4.68519 5.60887 4.51694L0.0538889 0.998777C0.0197917 1.11308 0.00165551 1.23121 0 1.35013V7.65002C0.000414541 8.00791 0.147266 8.35114 0.408439 8.60413C0.669495 8.85726 1.02363 8.99959 1.39286 9H11.6071C11.9764 8.9996 12.3305 8.85727 12.5916 8.60413C12.8527 8.35112 12.9996 8.00788 13 7.65002V1.35013C12.9981 1.22508 12.9781 1.10083 12.9405 0.981086L7.39462 4.51432Z" fill="#1965BE"/>
</svg>
