<svg width="13" height="13" viewBox="0 0 13 13" fill="none" xmlns="http://www.w3.org/2000/svg">
    <path d="M10.9568 1.76735C12.3033 3.16566 12.9471 4.66415 12.9996 6.4149C13.0117 6.81741 12.7684 7.08341 12.3829 7.10401C11.976 7.12575 11.6999 6.87371 11.6898 6.46281C11.6685 5.60079 11.4739 4.78146 11.0481 4.03202C10.078 2.32448 8.59843 1.43457 6.65095 1.32288C6.43488 1.31062 6.23235 1.28799 6.08041 1.11431C5.88586 0.892036 5.86877 0.636318 5.97354 0.376031C6.07919 0.113624 6.29338 -0.00465432 6.57161 0.000139913C7.83944 0.0217656 9.00917 0.376145 10.0647 1.08064C10.4292 1.32398 10.7617 1.61594 10.9569 1.76741L10.9568 1.76735ZM6.51731 2.45281C6.40089 2.45125 6.27393 2.47421 6.16905 2.52315C5.89793 2.64945 5.77053 2.96915 5.84321 3.28797C5.90713 3.56888 6.15405 3.76297 6.46469 3.76673C7.1905 3.77565 7.83253 4.00629 8.36611 4.5057C8.95285 5.05447 9.22687 5.74273 9.25517 6.54342C9.26028 6.68578 9.31355 6.84774 9.39689 6.96178C9.57091 7.19989 9.8801 7.25965 10.1639 7.15095C10.4148 7.05486 10.5626 6.82913 10.5604 6.52992C10.5523 5.41429 10.148 4.46155 9.36715 3.64054C8.58363 2.88254 7.63221 2.46852 6.51726 2.45268L6.51731 2.45281ZM10.2366 12.4459C10.5052 12.1442 10.8053 11.8707 11.0895 11.5828C11.51 11.1566 11.5134 10.6396 11.0953 10.2165C10.5967 9.71193 10.0962 9.20931 9.59343 8.70903C9.18204 8.29957 8.66764 8.3006 8.25813 8.70825C7.94538 9.01958 7.63187 9.33038 7.3258 9.6482C7.3046 9.67005 7.28429 9.68766 7.26387 9.70059L7.04968 9.91574C6.98997 9.95397 6.93071 9.95341 6.85302 9.91105C6.65093 9.80092 6.43629 9.71196 6.24219 9.58955C5.33614 9.01824 4.57627 8.28187 3.90441 7.45227C3.57013 7.03959 3.27304 6.60061 3.06774 6.10489C3.03356 6.02229 3.03256 5.96298 3.0784 5.90022L3.29259 5.68508C3.3028 5.67114 3.31434 5.6571 3.32932 5.64272C3.42321 5.55176 3.51621 5.46002 3.60888 5.36783C3.8254 5.15246 4.03936 4.93463 4.25434 4.71761C4.68227 4.28564 4.68139 3.77788 4.2519 3.34258C4.0083 3.09589 3.76281 2.85088 3.51811 2.60518C3.26596 2.35202 3.01581 2.09688 2.76144 1.84603C2.34937 1.43961 1.83488 1.43881 1.42369 1.84492C1.10984 2.15515 0.806101 2.47585 0.487247 2.78074C0.190383 3.06477 0.039124 3.4089 0.00880974 3.81352C-0.0400227 4.46931 0.120012 5.08922 0.343858 5.6944C0.806641 6.94601 1.51057 8.05416 2.36224 9.07234C3.51399 10.4494 4.89103 11.5391 6.50169 12.3253C7.22628 12.679 7.9786 12.951 8.79419 12.9958C9.35496 13.0273 9.84561 12.8851 10.2367 12.446L10.2366 12.4459Z" fill="#1965BE"/>
</svg>
