<svg width="123" height="122" viewBox="0 0 123 122" fill="none" xmlns="http://www.w3.org/2000/svg">
<rect x="0.5" width="122" height="122" rx="15" fill="#1965BE"/>
<path d="M101.472 38.4613C101.456 37.9976 101.251 37.5587 100.911 37.2433C100.572 36.9256 100.111 36.7656 99.6507 36.7757C99.4738 36.7757 94.997 36.8961 90.4536 32.0979C85.9559 27.3433 85.8341 22.9302 85.8304 22.7284C85.8234 21.7737 85.0483 21 84.0924 21H38.9065C37.9569 21 37.1818 21.7768 37.1686 22.7284C37.1663 22.9132 37.0507 27.3347 32.5446 32.0979C28.0011 36.8986 23.5415 36.7757 23.363 36.7773C22.8835 36.747 22.4358 36.9148 22.0914 37.2309C21.7453 37.5486 21.5421 37.9922 21.5289 38.4613C21.4885 39.8067 20.6669 71.5652 31.5188 84.6501C42.2512 97.5898 56.3264 100.379 60.3842 100.925C60.7543 100.974 61.1275 101 61.4999 101C61.8723 101 62.2447 100.974 62.6148 100.925C66.6726 100.379 80.7497 97.5914 91.4801 84.6501C102.334 71.5658 101.51 39.8076 101.472 38.4613ZM88.8057 82.4268C78.8787 94.3979 65.8929 96.9723 62.151 97.4748C61.7126 97.5346 61.2882 97.5346 60.8483 97.4748C57.1047 96.9715 44.1208 94.3957 34.1936 82.4268C25.4653 71.9037 24.9631 46.6463 24.985 40.1238C27.2226 39.7804 31.1972 38.5826 35.0695 34.4905C38.8115 30.5366 40.0427 26.645 40.4477 24.4808H82.555C82.9592 26.6458 84.1913 30.5366 87.9332 34.4905C91.8047 38.5826 95.7795 39.7805 98.0177 40.1238C98.0395 46.6473 97.5418 71.8973 88.8057 82.4268ZM79.4714 52.8248C79.8857 52.3642 80.023 51.7156 79.8314 51.1252C79.6397 50.5341 79.1471 50.0905 78.5411 49.9616L68.2393 47.7562L62.9791 39.2278C62.3444 38.2017 60.6539 38.2017 60.0207 39.2278L54.7618 47.7562L44.4584 49.9616C43.8517 50.0905 43.3606 50.5341 43.1682 51.1252C42.9765 51.7148 43.1139 52.3642 43.5289 52.8248L50.5511 60.6503L49.4634 71.112C49.399 71.7288 49.669 72.3355 50.1702 72.699C50.6714 73.0657 51.3293 73.1325 51.8972 72.8823L61.5001 68.6138L71.1029 72.8823C71.3287 72.9825 71.5677 73.0315 71.8074 73.0315C72.169 73.0315 72.5274 72.9196 72.8292 72.6982C73.332 72.3347 73.5996 71.7296 73.5368 71.1112L72.4506 60.6495L79.4714 52.8248ZM69.3479 58.8994C69.0205 59.2644 68.8623 59.7523 68.9119 60.2416L69.7692 68.4811L62.2054 65.12C61.9804 65.0198 61.7407 64.9709 61.5001 64.9709C61.2596 64.9709 61.0199 65.0198 60.7949 65.12L53.2311 68.4811L54.0884 60.2416C54.1396 59.7523 53.9805 59.2644 53.6524 58.8994L48.1212 52.7363L56.2141 51.0033C56.6773 50.9047 57.0808 50.6212 57.3298 50.2165L61.5 43.4537L65.6718 50.2165C65.9193 50.6212 66.3236 50.9047 66.7868 51.0033L74.8789 52.7363L69.3479 58.8994Z" fill="white"/>
</svg>
