<svg width="13" height="12" viewBox="0 0 13 12" fill="none" xmlns="http://www.w3.org/2000/svg">
    <path d="M6.45233 11.986C4.92508 11.986 3.39465 11.9888 1.86763 11.9833C0.970864 11.9805 0.35874 11.6134 0.104713 10.9508C-0.146259 10.2965 0.0465615 9.55671 0.762755 9.14813C1.91355 8.49386 3.12862 7.9307 4.3314 7.35096C4.45382 7.29299 4.68337 7.35372 4.8364 7.41722C5.94436 7.85617 7.04005 7.85892 8.15404 7.42826C8.34686 7.35372 8.64069 7.34268 8.81819 7.42274C9.87104 7.90586 10.9147 8.40276 11.9369 8.93557C12.8581 9.41592 13.204 10.222 12.8826 10.984C12.6071 11.6354 12.0318 11.9778 11.1564 11.9833C9.58936 11.9916 8.01925 11.9888 6.45221 11.9861L6.45233 11.986Z" fill="#1965BE"/>
    <path d="M3.03974 3.67965C3.03668 1.39936 4.82101 -0.221196 6.9299 0.0246421C8.19394 0.170956 9.02643 0.8694 9.55897 1.87425C10.3088 3.29045 9.99665 5.0656 8.81829 6.13123C7.92458 6.93735 6.85032 7.25482 5.6291 6.92354C4.24876 6.55085 3.50504 5.62053 3.15917 4.4031C3.07959 4.11875 3.06123 3.82061 3.0398 3.67982L3.03974 3.67965Z" fill="#1965BE"/>
</svg>
